<svg width="682" height="682" viewBox="0 0 682 682" fill="none" xmlns="http://www.w3.org/2000/svg">
<path d="M0 153C0 68.5005 68.5004 0 153 0H529C613.5 0 682 68.5004 682 153V529C682 613.5 613.5 682 529 682H153C68.5005 682 0 613.5 0 529V153Z" fill="#4641D9"/>
<path d="M547.457 294C547.457 382.365 475.822 454 387.457 454C299.092 454 227.457 382.365 227.457 294C227.457 205.634 299.092 134 387.457 134C475.822 134 547.457 205.634 547.457 294Z" fill="white" fill-opacity="0.19"/>
<path d="M473.027 209.713C481.864 225.018 479.721 242.798 468.241 249.426C456.763 256.053 440.294 249.018 431.457 233.713C422.62 218.408 424.763 200.627 436.241 194C447.721 187.373 464.19 194.408 473.027 209.713Z" fill="white" fill-opacity="0.5"/>
<path d="M563.457 294C563.457 391.202 484.66 470 387.457 470C350.734 470 316.638 458.754 288.427 439.515C292.823 458.938 287.46 480.123 272.339 495.246L221.426 546.158C197.995 569.589 160.005 569.589 136.574 546.158C113.142 522.726 113.142 484.736 136.574 461.306L187.485 410.394C202.485 395.394 223.452 389.995 242.746 394.202C223.018 365.763 211.457 331.232 211.457 294C211.457 196.798 290.255 118 387.457 118C484.66 118 563.457 196.798 563.457 294ZM531.457 294C531.457 214.471 466.987 150 387.457 150C307.929 150 243.457 214.471 243.457 294C243.457 373.53 307.929 438 387.457 438C466.987 438 531.457 373.53 531.457 294Z" fill="white"/>
</svg>
